<?xml version="1.0" encoding="UTF-8" standalone="no"?>
<svg
   xmlns:dc="http://purl.org/dc/elements/1.1/"
   xmlns:cc="http://creativecommons.org/ns#"
   xmlns:rdf="http://www.w3.org/1999/02/22-rdf-syntax-ns#"
   xmlns:svg="http://www.w3.org/2000/svg"
   xmlns="http://www.w3.org/2000/svg"
   viewBox="0 0 480 480"
   height="480"
   width="480"
   xml:space="preserve"
   id="svg2"
   version="1.1"><metadata
     id="metadata8"><rdf:RDF><cc:Work
         rdf:about=""><dc:format>image/svg+xml</dc:format><dc:type
           rdf:resource="http://purl.org/dc/dcmitype/StillImage" /></cc:Work></rdf:RDF></metadata><defs
     id="defs6"><clipPath
       id="clipPath22"
       clipPathUnits="userSpaceOnUse"><path
         id="path20"
         d="M 0,360 H 360 V 0 H 0 Z" /></clipPath><clipPath
       id="clipPath114"
       clipPathUnits="userSpaceOnUse"><path
         id="path112"
         d="m 96.759,179.345 c 0,-45.973 37.268,-83.241 83.241,-83.241 v 0 c 45.973,0 83.241,37.268 83.241,83.241 v 0 c 0,45.973 -37.268,83.241 -83.241,83.241 v 0 c -45.973,0 -83.241,-37.268 -83.241,-83.241" /></clipPath><linearGradient
       id="linearGradient142"
       spreadMethod="pad"
       gradientTransform="matrix(0,-177.52243,-177.52243,0,180,266.22195)"
       gradientUnits="userSpaceOnUse"
       y2="0"
       x2="1"
       y1="0"
       x1="0"><stop
         id="stop132"
         offset="0"
         style="stop-opacity:1;stop-color:#fff5f9" /><stop
         id="stop134"
         offset="0.124152"
         style="stop-opacity:1;stop-color:#fff5f9" /><stop
         id="stop136"
         offset="0.9152522"
         style="stop-opacity:1;stop-color:#fdcbe2" /><stop
         id="stop138"
         offset="0.979893"
         style="stop-opacity:1;stop-color:#fdcbe2" /><stop
         id="stop140"
         offset="1"
         style="stop-opacity:1;stop-color:#fdcbe2" /></linearGradient><clipPath
       id="clipPath152"
       clipPathUnits="userSpaceOnUse"><path
         id="path150"
         d="M 0,360 H 360 V 0 H 0 Z" /></clipPath><clipPath
       id="clipPath168"
       clipPathUnits="userSpaceOnUse"><path
         id="path166"
         d="M 0,360 H 360 V 0 H 0 Z" /></clipPath><clipPath
       id="clipPath176"
       clipPathUnits="userSpaceOnUse"><path
         id="path174"
         d="M 666.524,180 C 666.524,121.169 618.831,73.476 560,73.476 c -58.831,0 -106.524,47.693 -106.524,106.524 0,58.831 47.693,106.524 106.524,106.524 58.831,0 106.524,-47.693 106.524,-106.524" /></clipPath><linearGradient
       id="linearGradient200"
       spreadMethod="pad"
       gradientTransform="matrix(0,-227.17513,-227.17513,0,560,291.17654)"
       gradientUnits="userSpaceOnUse"
       y2="0"
       x2="1"
       y1="0"
       x1="0"><stop
         id="stop190"
         offset="0"
         style="stop-opacity:1;stop-color:#fff5f9" /><stop
         id="stop192"
         offset="0.124152"
         style="stop-opacity:1;stop-color:#fff5f9" /><stop
         id="stop194"
         offset="0.9152522"
         style="stop-opacity:1;stop-color:#fdcbe2" /><stop
         id="stop196"
         offset="0.979893"
         style="stop-opacity:1;stop-color:#fdcbe2" /><stop
         id="stop198"
         offset="1"
         style="stop-opacity:1;stop-color:#fdcbe2" /></linearGradient></defs><g
     transform="matrix(1.3333333,0,0,-1.3333333,0,480)"
     id="g10"><g
       transform="translate(77.246,261.1367)"
       id="g12"><path
         id="path14"
         style="fill:#fdcbe2;fill-opacity:1;fill-rule:nonzero;stroke:none"
         d="M 0,0 2.857,3.137 18.589,-11.235 26,-3.121 28.704,-5.586 18.429,-16.821 Z" /></g><g
       id="g16"><g
         clip-path="url(#clipPath22)"
         id="g18"><g
           transform="translate(118.322,264.2736)"
           id="g24"><path
             id="path26"
             style="fill:#fdcbe2;fill-opacity:1;fill-rule:nonzero;stroke:none"
             d="m 0,0 c -4.993,-3.393 -9.715,-3.009 -13.412,2.409 l -8.963,13.148 3.449,2.352 9.163,-13.46 C -7.578,1.256 -4.817,1 -1.873,3.009 1.2,5.105 1.857,7.69 -0.296,10.851 l -9.195,13.476 3.409,2.329 8.963,-13.148 C 6.418,8.306 5.138,3.513 0,0" /></g><g
           transform="translate(139.1841,289.657)"
           id="g28"><path
             id="path30"
             style="fill:#fdcbe2;fill-opacity:1;fill-rule:nonzero;stroke:none"
             d="m 0,0 12.108,-9.379 -4.626,-1.68 -8.89,6.938 -0.056,-0.032 -2.281,-10.995 -4.337,-1.585 3.193,14.956 -11.196,8.723 4.578,1.665 8.018,-6.146 0.072,0.024 2.105,9.835 4.329,1.584 z" /></g><g
           transform="translate(153.8604,306.0458)"
           id="g32"><path
             id="path34"
             style="fill:#fdcbe2;fill-opacity:1;fill-rule:nonzero;stroke:none"
             d="m 0,0 15.02,1.857 0.441,-3.626 -10.796,-1.336 0.809,-6.594 9.418,1.177 0.448,-3.634 -9.402,-1.16 0.896,-7.322 10.907,1.352 0.464,-3.633 -15.132,-1.864 z" /></g><g
           transform="translate(203.6829,301.4205)"
           id="g36"><path
             id="path38"
             style="fill:#fdcbe2;fill-opacity:1;fill-rule:nonzero;stroke:none"
             d="m 0,0 -2.697,0.6 -1.928,-8.618 2.808,-0.625 C 1.352,-9.355 3.609,-8.202 4.257,-5.346 4.961,-2.177 2.953,-0.672 0,0 m -2.593,-12.1 -2.809,0.625 -1.96,-8.795 -4.113,0.92 5.449,24.399 6.93,-1.544 C 6.378,2.273 9.843,-0.512 8.579,-6.13 7.434,-11.283 3.209,-13.396 -2.593,-12.1" /></g><g
           transform="translate(225.1532,298.7077)"
           id="g40"><path
             id="path42"
             style="fill:#fdcbe2;fill-opacity:1;fill-rule:nonzero;stroke:none"
             d="m 0,0 3.857,-1.769 -8.914,-19.381 10.002,-4.602 -1.536,-3.321 -13.86,6.37 z" /></g><g
           transform="translate(253.1374,277.7496)"
           id="g44"><path
             id="path46"
             style="fill:#fdcbe2;fill-opacity:1;fill-rule:nonzero;stroke:none"
             d="m 0,0 -9.931,-6.466 6.258,-4.849 3.745,11.275 z m -3.673,-23.463 -3.465,2.681 2.041,6.058 -7.747,5.993 -5.361,-3.489 -3.321,2.569 22.27,14.284 3.849,-2.977 z" /></g><g
           transform="translate(269.2381,269.6432)"
           id="g48"><path
             id="path50"
             style="fill:#fdcbe2;fill-opacity:1;fill-rule:nonzero;stroke:none"
             d="m 0,0 3.025,-3.633 -4.882,-11.844 0.04,-0.064 12.516,2.681 2.817,-3.377 -17.101,-3.233 -7.522,-6.25 -2.697,3.233 7.53,6.258 z" /></g><g
           transform="translate(78.5743,185.6666)"
           id="g52"><path
             id="path54"
             style="fill:#fdcbe2;fill-opacity:1;fill-rule:nonzero;stroke:none"
             d="m 0,0 -0.016,-1.56 -23.623,0.432 -0.224,-11.956 -1.36,0.016 0.24,13.508 z" /></g><g
           transform="translate(55.8237,152.0968)"
           id="g56"><path
             id="path58"
             style="fill:#fdcbe2;fill-opacity:1;fill-rule:nonzero;stroke:none"
             d="M 0,0 C -1.128,5.314 0.728,9.139 6.362,10.339 L 23.023,13.9 23.351,12.388 6.61,8.811 C 2.065,7.842 0.328,4.833 1.312,0.208 2.329,-4.553 5.121,-6.482 9.667,-5.514 l 16.741,3.569 0.328,-1.512 -16.605,-3.537 C 4.473,-8.202 1.168,-5.442 0,0" /></g><g
           transform="translate(77.9501,128.1138)"
           id="g60"><path
             id="path62"
             style="fill:#fdcbe2;fill-opacity:1;fill-rule:nonzero;stroke:none"
             d="M 0,0 -7.85,-12.988 -8.667,-11.291 -1.6,0.336 -15.092,2.041 -15.829,3.569 -0.848,1.673 6.722,14.204 7.522,12.54 0.736,1.336 0.752,1.304 13.732,-0.328 14.484,-1.889 Z" /></g><g
           transform="translate(81.7753,98.017)"
           id="g64"><path
             id="path66"
             style="fill:#fdcbe2;fill-opacity:1;fill-rule:nonzero;stroke:none"
             d="M 0,0 C -3.433,4.193 -3.545,8.466 0.92,12.116 L 14.116,22.927 15.092,21.734 1.841,10.867 C -1.761,7.922 -1.921,4.441 1.072,0.784 4.161,-2.985 7.53,-3.425 11.139,-0.48 l 13.26,10.867 0.976,-1.2 L 12.228,-1.584 C 7.746,-5.258 3.537,-4.313 0,0" /></g><g
           transform="translate(120.8107,87.838)"
           id="g68"><path
             id="path70"
             style="fill:#fdcbe2;fill-opacity:1;fill-rule:nonzero;stroke:none"
             d="m 0,0 c 2.297,3.105 0.504,5.994 -2.761,8.41 l -3.545,2.633 -6.186,-8.346 3.825,-2.825 C -5.418,-2.537 -2.001,-2.689 0,0 m -10.155,-15.437 0.816,14.157 -3.929,2.912 -7.066,-9.522 -1.232,0.92 14.828,20.022 4.825,-3.577 C 2.313,6.346 4.089,2.929 1.304,-0.832 -0.84,-3.729 -4.481,-3.873 -7.922,-1.969 l -0.809,-14.516 z" /></g><g
           transform="translate(129.4532,89.9266)"
           id="g72"><path
             id="path74"
             style="fill:#fdcbe2;fill-opacity:1;fill-rule:nonzero;stroke:none"
             d="m 0,0 1.536,-0.696 1.433,-15.445 12.588,9.059 1.448,-0.656 -14.012,-10.067 -4.145,-9.091 -1.369,0.624 4.137,9.091 z" /></g><g
           transform="translate(176.0188,74.9383)"
           id="g76"><path
             id="path78"
             style="fill:#fdcbe2;fill-opacity:1;fill-rule:nonzero;stroke:none"
             d="m 0,0 c -1.528,0.704 -3.185,1.2 -4.761,1.36 -3.201,0.312 -6.05,-0.784 -6.386,-4.193 -0.736,-7.498 11.187,-5.409 10.331,-14.156 -0.464,-4.625 -4.169,-6.186 -8.187,-5.794 -2.088,0.208 -4.281,0.945 -6.129,2.121 l 0.144,1.44 c 1.88,-1.184 4.137,-2.048 6.193,-2.248 3.201,-0.312 6.026,0.896 6.378,4.489 0.753,7.642 -11.195,5.634 -10.347,14.3 0.432,4.41 4.169,5.786 8.099,5.402 1.656,-0.168 3.313,-0.664 4.793,-1.329 z" /></g><g
           transform="translate(205.1553,66.8239)"
           id="g80"><path
             id="path82"
             style="fill:#fdcbe2;fill-opacity:1;fill-rule:nonzero;stroke:none"
             d="M 0,0 C -0.872,6.25 -4.369,11.011 -10.947,10.099 -17.565,9.179 -19.63,3.633 -18.757,-2.617 -17.861,-9.011 -14.34,-13.7 -7.762,-12.788 -1.176,-11.867 0.88,-6.33 0,0 m -20.318,-2.905 c -1.008,7.202 1.649,13.308 9.219,14.364 C -3.609,12.5 0.568,7.418 1.576,0.208 2.577,-7.058 -0.12,-13.06 -7.578,-14.1 c -7.61,-1.056 -11.716,3.841 -12.74,11.195" /></g><g
           transform="translate(218.5353,71.6253)"
           id="g84"><path
             id="path86"
             style="fill:#fdcbe2;fill-opacity:1;fill-rule:nonzero;stroke:none"
             d="M 0,0 9.347,3.713 9.843,2.449 0.512,-1.272 4.809,-12.084 3.369,-12.66 -5.85,10.515 5.93,15.196 6.434,13.932 -3.905,9.819 Z" /></g><g
           transform="translate(249.8564,72.8897)"
           id="g88"><path
             id="path90"
             style="fill:#fdcbe2;fill-opacity:1;fill-rule:nonzero;stroke:none"
             d="m 0,0 -1.336,-0.864 -12.86,19.814 -6.682,-4.338 -0.752,1.145 14.684,9.522 0.736,-1.144 -6.65,-4.321 z" /></g><g
           transform="translate(261.1637,115.11)"
           id="g92"><path
             id="path94"
             style="fill:#fdcbe2;fill-opacity:1;fill-rule:nonzero;stroke:none"
             d="m 0,0 -2.489,-3.217 9.051,-6.994 2.537,3.273 C 11.643,-3.641 11.651,-0.24 8.731,2.017 5.346,4.625 2.481,3.209 0,0 m 10.139,-7.754 -2.529,-3.265 8.587,-6.634 -0.953,-1.225 -19.757,15.269 3.473,4.497 C 2.073,4.913 5.554,6.466 9.675,3.297 13.412,0.4 13.236,-3.753 10.139,-7.754" /></g><g
           transform="translate(269.0861,129.2822)"
           id="g96"><path
             id="path98"
             style="fill:#fdcbe2;fill-opacity:1;fill-rule:nonzero;stroke:none"
             d="M 0,0 0.68,1.392 21.854,-9.035 27.136,1.68 28.36,1.08 22.399,-11.035 Z" /></g><g
           transform="translate(292.997,145.855)"
           id="g100"><path
             id="path102"
             style="fill:#fdcbe2;fill-opacity:1;fill-rule:nonzero;stroke:none"
             d="M 0,0 2.577,10.731 -12.356,8.643 Z M 12.684,13.572 12.3,11.955 3.993,10.811 1.24,-0.688 8.114,-5.474 7.746,-7.018 -14.228,8.218 -13.82,9.939 Z" /></g><g
           transform="translate(281.4817,167.3253)"
           id="g104"><path
             id="path106"
             style="fill:#fdcbe2;fill-opacity:1;fill-rule:nonzero;stroke:none"
             d="M 0,0 0.04,1.697 13.644,9.171 0.312,17.125 0.336,18.709 15.172,9.843 25.167,9.667 25.143,8.154 15.14,8.33 Z" /></g></g></g><g
       id="g108"><g
         clip-path="url(#clipPath114)"
         id="g110"><g
           transform="translate(263.2412,179.3448)"
           id="g116"><path
             id="path118"
             style="fill:#e86a54;fill-opacity:1;fill-rule:nonzero;stroke:none"
             d="m 0,0 c 0,-45.973 -37.268,-83.241 -83.241,-83.241 -45.973,0 -83.241,37.268 -83.241,83.241 0,45.973 37.268,83.241 83.241,83.241 C -37.268,83.241 0,45.973 0,0" /></g></g></g><g
       id="g120"><g
         id="g122"><g
           id="g128"><g
             id="g130"><path
               id="path144"
               style="fill:url(#linearGradient142);stroke:none"
               d="m 96.759,179.345 c 0,-45.973 37.268,-83.241 83.241,-83.241 v 0 c 45.973,0 83.241,37.268 83.241,83.241 v 0 c 0,45.973 -37.268,83.241 -83.241,83.241 v 0 c -45.973,0 -83.241,-37.268 -83.241,-83.241" /></g></g></g></g><g
       id="g146"><g
         clip-path="url(#clipPath152)"
         id="g148"><g
           transform="translate(153.4641,244.624)"
           id="g154"><path
             id="path156"
             style="fill:none;stroke:#ffffff;stroke-width:8.38099957;stroke-linecap:round;stroke-linejoin:round;stroke-miterlimit:10;stroke-dasharray:none;stroke-opacity:1"
             d="M 0,0 C 2.201,1.036 4.451,1.962 6.742,2.777" /></g><g
           transform="translate(120.3181,216.2912)"
           id="g158"><path
             id="path160"
             style="fill:none;stroke:#ffffff;stroke-width:8.38099957;stroke-linecap:round;stroke-linejoin:round;stroke-miterlimit:10;stroke-dasharray:none;stroke-opacity:1"
             d="M 0,0 C 5.364,7.996 12.125,14.682 19.796,19.876" /></g></g></g><g
       id="g162"><g
         clip-path="url(#clipPath168)"
         id="g164"><g
           id="g170"><g
             clip-path="url(#clipPath176)"
             id="g172"><g
               id="g178"><g
                 id="g180"><g
                   id="g186"><g
                     id="g188"><path
                       id="path202"
                       style="fill:url(#linearGradient200);stroke:none"
                       d="m 101.882,291.177 h 916.236 V 64.002 H 101.882 Z" /></g></g></g></g></g></g></g></g></g></svg>