<?xml version="1.0" encoding="UTF-8" standalone="no"?>
<svg
   xmlns:dc="http://purl.org/dc/elements/1.1/"
   xmlns:cc="http://creativecommons.org/ns#"
   xmlns:rdf="http://www.w3.org/1999/02/22-rdf-syntax-ns#"
   xmlns:svg="http://www.w3.org/2000/svg"
   xmlns="http://www.w3.org/2000/svg"
   viewBox="0 0 480 480"
   height="480"
   width="480"
   xml:space="preserve"
   id="svg2"
   version="1.1"><metadata
     id="metadata8"><rdf:RDF><cc:Work
         rdf:about=""><dc:format>image/svg+xml</dc:format><dc:type
           rdf:resource="http://purl.org/dc/dcmitype/StillImage" /></cc:Work></rdf:RDF></metadata><defs
     id="defs6"><clipPath
       id="clipPath22"
       clipPathUnits="userSpaceOnUse"><path
         id="path20"
         d="M 0,360 H 360 V 0 H 0 Z" /></clipPath></defs><g
     transform="matrix(1.3333333,0,0,-1.3333333,0,480)"
     id="g10"><g
       transform="translate(10.7163,220.8977)"
       id="g12"><path
         id="path14"
         style="fill:#fdcbe2;fill-opacity:1;fill-rule:nonzero;stroke:none"
         d="m 0,0 h 8.876 v -44.632 h 23.012 v -7.643 H 0 Z" /></g><g
       id="g16"><g
         clip-path="url(#clipPath22)"
         id="g18"><g
           transform="translate(70.0319,167.541)"
           id="g24"><path
             id="path26"
             style="fill:#fdcbe2;fill-opacity:1;fill-rule:nonzero;stroke:none"
             d="m 0,0 c -12.662,0 -20.382,6.254 -20.382,20 v 33.357 h 8.722 V 19.226 c 0,-8.107 4.481,-11.813 11.973,-11.813 7.794,0 11.967,3.706 11.967,11.736 v 34.208 h 8.648 V 20 C 20.928,6.795 13.049,0 0,0" /></g><g
           transform="translate(125.7305,195.7252)"
           id="g28"><path
             id="path30"
             style="fill:#fdcbe2;fill-opacity:1;fill-rule:nonzero;stroke:none"
             d="M 0,0 17.063,-27.103 H 6.792 L -5.716,-7.105 H -5.87 l -12.354,-19.998 h -9.65 L -10.891,0 -26.639,25.173 h 10.191 L -5.096,7.336 h 0.154 L 6.252,25.173 h 9.655 z" /></g><g
           transform="translate(149.8437,220.8977)"
           id="g32"><path
             id="path34"
             style="fill:#fdcbe2;fill-opacity:1;fill-rule:nonzero;stroke:none"
             d="M 0,0 H 31.655 V -7.646 H 8.876 v -13.897 h 19.847 v -7.646 H 8.876 v -15.443 h 23.012 v -7.643 H 0 Z" /></g><g
           transform="translate(204.8326,217.4991)"
           id="g36"><path
             id="path38"
             style="fill:#fdcbe2;fill-opacity:1;fill-rule:nonzero;stroke:none"
             d="m 0,0 h -8.494 v -23.937 h 8.648 c 8.722,0 14.359,4.324 14.359,12.047 C 14.513,-2.935 8.489,0 0,0 m 0.154,-26.716 h -8.648 v -22.701 h -3.245 V 2.858 H 0.154 c 10.652,0 17.683,-3.786 17.683,-14.672 0,-9.883 -7.105,-14.902 -17.683,-14.902" /></g><g
           transform="translate(233.9619,220.3569)"
           id="g40"><path
             id="path42"
             style="fill:#fdcbe2;fill-opacity:1;fill-rule:nonzero;stroke:none"
             d="m 0,0 h 3.245 v -49.417 h 25.016 v -2.858 H 0 Z" /></g><g
           transform="translate(276.4478,187.3079)"
           id="g44"><path
             id="path46"
             style="fill:#fdcbe2;fill-opacity:1;fill-rule:nonzero;stroke:none"
             d="M 0,0 H 23.166 L 11.58,29.42 Z m 33.897,-19.226 h -3.473 l -6.41,16.368 H -0.774 l -6.405,-16.368 h -3.32 L 9.809,33.049 h 3.701 z" /></g><g
           transform="translate(310.1369,220.3569)"
           id="g48"><path
             id="path50"
             style="fill:#fdcbe2;fill-opacity:1;fill-rule:nonzero;stroke:none"
             d="M 0,0 H 3.552 L 19.687,-28.184 35.827,0 h 3.32 L 21.156,-31.35 v -20.925 h -3.165 v 20.925 z" /></g><g
           transform="translate(68.045,149.5337)"
           id="g52"><path
             id="path54"
             style="fill:#fdcbe2;fill-opacity:1;fill-rule:nonzero;stroke:none"
             d="m 0,0 h 1.375 v -9.039 h 4.626 v -1.195 H 0 Z" /></g><g
           transform="translate(85.4403,139.1023)"
           id="g56"><path
             id="path58"
             style="fill:#fdcbe2;fill-opacity:1;fill-rule:nonzero;stroke:none"
             d="m 0,0 c -2.387,0 -3.853,1.18 -3.853,3.75 v 6.681 h 1.359 V 3.644 c 0,-1.694 0.937,-2.479 2.555,-2.479 1.662,0 2.538,0.785 2.538,2.464 v 6.802 H 3.961 V 3.765 C 3.961,1.24 2.464,0 0,0" /></g><g
           transform="translate(101.9261,144.575)"
           id="g60"><path
             id="path62"
             style="fill:#fdcbe2;fill-opacity:1;fill-rule:nonzero;stroke:none"
             d="M 0,0 3.385,-5.276 H 1.767 l -2.644,4.172 h -0.016 l -2.63,-4.172 H -5.019 L -1.665,0 -4.824,4.959 h 1.602 l 2.45,-3.84 h 0.014 l 2.45,3.84 h 1.497 z" /></g><g
           transform="translate(116.6725,139.1023)"
           id="g64"><path
             id="path66"
             style="fill:#fdcbe2;fill-opacity:1;fill-rule:nonzero;stroke:none"
             d="m 0,0 c -2.387,0 -3.853,1.18 -3.853,3.75 v 6.681 h 1.359 V 3.644 c 0,-1.694 0.937,-2.479 2.555,-2.479 1.662,0 2.538,0.785 2.538,2.464 v 6.802 H 3.961 V 3.765 C 3.961,1.24 2.464,0 0,0" /></g><g
           transform="translate(134.6384,146.6464)"
           id="g68"><path
             id="path70"
             style="fill:#fdcbe2;fill-opacity:1;fill-rule:nonzero;stroke:none"
             d="m 0,0 c 0,1.284 -0.998,1.708 -2.357,1.708 h -1.604 v -3.522 h 1.662 C -0.907,-1.814 0,-1.165 0,0 m 0.455,-7.347 -2.707,4.384 H -3.961 V -7.347 H -5.336 V 2.887 h 2.993 c 2.39,0 3.718,-0.831 3.718,-2.796 0,-1.286 -0.937,-2.329 -2.282,-2.707 l 2.933,-4.731 z" /></g><g
           transform="translate(142.5271,149.5337)"
           id="g72"><path
             id="path74"
             style="fill:#fdcbe2;fill-opacity:1;fill-rule:nonzero;stroke:none"
             d="m 0,0 h 1.557 l 2.66,-4.913 H 4.248 L 6.907,0 H 8.343 L 4.851,-6.198 v -4.036 H 3.492 v 4.036 z" /></g><g
           transform="translate(173.616,148.1128)"
           id="g76"><path
             id="path78"
             style="fill:#fdcbe2;fill-opacity:1;fill-rule:nonzero;stroke:none"
             d="m 0,0 c -0.725,0.256 -1.541,0.438 -2.235,0.438 -1.089,0 -1.935,-0.408 -1.935,-1.557 0,-2.645 4.594,-1.285 4.594,-4.944 0,-2.115 -1.587,-2.947 -3.387,-2.947 -0.921,0 -1.919,0.212 -2.781,0.605 v 1.255 c 0.893,-0.409 1.921,-0.696 2.797,-0.696 1.089,0 1.949,0.453 1.949,1.692 0,2.616 -4.595,1.377 -4.595,4.974 0,2.026 1.571,2.781 3.341,2.781 0.755,0 1.544,-0.135 2.252,-0.377 z" /></g><g
           transform="translate(189.6359,144.4082)"
           id="g80"><path
             id="path82"
             style="fill:#fdcbe2;fill-opacity:1;fill-rule:nonzero;stroke:none"
             d="m 0,0 c 0,2.284 -0.967,4.143 -3.357,4.143 -2.404,0 -3.371,-1.905 -3.371,-4.143 0,-2.313 0.984,-4.141 3.371,-4.141 C -0.967,-4.141 0,-2.267 0,0 m -8.148,-0.044 c 0,2.992 1.511,5.35 4.807,5.35 3.28,0 4.747,-2.282 4.747,-5.291 0,-3.007 -1.527,-5.321 -4.777,-5.321 -3.31,0 -4.777,2.162 -4.777,5.262" /></g><g
           transform="translate(200.6006,144.9072)"
           id="g84"><path
             id="path86"
             style="fill:#fdcbe2;fill-opacity:1;fill-rule:nonzero;stroke:none"
             d="M 0,0 H 3.886 V -1.209 H 0 V -5.608 H -1.375 V 4.627 H 4.294 V 3.432 L 0,3.432 Z" /></g><g
           transform="translate(216.2732,139.2993)"
           id="g88"><path
             id="path90"
             style="fill:#fdcbe2;fill-opacity:1;fill-rule:nonzero;stroke:none"
             d="m 0,0 h -1.389 v 9.039 h -3.115 v 1.195 H 3.098 V 9.039 H 0 Z" /></g><g
           transform="translate(239.6995,148.354)"
           id="g92"><path
             id="path94"
             style="fill:#fdcbe2;fill-opacity:1;fill-rule:nonzero;stroke:none"
             d="m 0,0 h -1.284 v -3.961 h 1.331 c 1.45,0 2.357,0.726 2.357,2.026 C 2.404,-0.484 1.392,0 0,0 M 0.047,-5.124 H -1.284 V -9.055 H -2.66 V 1.18 h 2.707 c 2.235,0 3.793,-0.772 3.793,-3.069 0,-2.086 -1.467,-3.235 -3.793,-3.235" /></g><g
           transform="translate(251.5463,149.5337)"
           id="g96"><path
             id="path98"
             style="fill:#fdcbe2;fill-opacity:1;fill-rule:nonzero;stroke:none"
             d="m 0,0 h 1.375 v -9.039 h 4.626 v -1.195 H 0 Z" /></g><g
           transform="translate(268.6246,148.1431)"
           id="g100"><path
             id="path102"
             style="fill:#fdcbe2;fill-opacity:1;fill-rule:nonzero;stroke:none"
             d="M 0,0 -1.8,-4.959 H 1.844 L 0.014,0 Z M 4.611,-8.844 H 3.159 l -0.981,2.706 h -4.295 l -0.981,-2.706 h -1.376 l 3.733,10.235 h 1.604 z" /></g><g
           transform="translate(278.7928,149.5337)"
           id="g104"><path
             id="path106"
             style="fill:#fdcbe2;fill-opacity:1;fill-rule:nonzero;stroke:none"
             d="m 0,0 h 1.557 l 2.66,-4.913 H 4.248 L 6.907,0 H 8.343 L 4.851,-6.198 v -4.036 H 3.492 v 4.036 z" /></g></g></g></g></svg>